<?xml version="1.0" encoding="UTF-8"?>
<svg id="Layer_2" data-name="Layer 2" xmlns="http://www.w3.org/2000/svg" viewBox="0 0 343.15 388.47">
  <defs>
    <style>
      .cls-1 {
        fill: #e82d74;
      }
    </style>
  </defs>
  <g id="Layer_1-2" data-name="Layer 1">
    <g>
      <path class="cls-1" d="m309.97,115.44l29.07-29.07-25.67-25.67-27.9,27.9c-31.42-27.97-71.48-43.27-113.9-43.27-45.83,0-88.92,17.85-121.32,50.25C17.85,127.98,0,171.07,0,216.89s17.85,88.92,50.25,121.32,75.49,50.25,121.32,50.25,88.92-17.85,121.32-50.25c32.41-32.41,50.25-75.49,50.25-121.32,0-37-11.64-72.21-33.18-101.46Zm-138.4,236.72c-74.59,0-135.27-60.68-135.27-135.26S96.99,81.63,171.57,81.63s135.26,60.68,135.26,135.26-60.68,135.26-135.26,135.26Z"/>
      <rect class="cls-1" x="106.68" width="129.79" height="36.31"/>
      <path class="cls-1" d="m207.24,232.68c-.33-.82-.08-1.39.74-1.72,9.66-3.6,17.2-9.42,22.6-17.44,5.4-8.02,8.11-17.52,8.11-28.5s-2.25-19.78-6.76-27.88c-4.51-8.11-10.85-14.37-19.04-18.79-8.19-4.42-17.69-6.63-28.5-6.63h-72.96c-.82,0-1.52.29-2.09.86-.58.58-.86,1.27-.86,2.09v166.07c0,.82.28,1.52.86,2.09.57.58,1.27.86,2.09.86h34.89c.82,0,1.51-.28,2.09-.86.57-.57.86-1.27.86-2.09v-64.37c0-.82.41-1.23,1.23-1.23h16.21c.65,0,1.14.33,1.47.98l28.99,65.35c.65,1.47,1.8,2.21,3.44,2.21h36.85c1.8,0,2.7-.65,2.7-1.97,0-.33-.17-.82-.49-1.47l-32.43-67.56Zm-14.74-33.78c-3.77,3.36-8.68,5.04-14.74,5.04h-27.27c-.82,0-1.23-.41-1.23-1.23v-34.88c0-.82.41-1.23,1.23-1.23h27.27c6.06,0,10.97,1.72,14.74,5.16,3.77,3.44,5.65,8.03,5.65,13.76s-1.88,10.03-5.65,13.39Z"/>
    </g>
  </g>
</svg>