<?xml version="1.0" encoding="UTF-8"?>
<svg id="Layer_2" data-name="Layer 2" xmlns="http://www.w3.org/2000/svg" viewBox="0 0 343.15 388.47">
  <defs>
    <style>
      .cls-1 {
        fill: #e82d74;
      }
    </style>
  </defs>
  <g id="Layer_1-2" data-name="Layer 1">
    <g>
      <path class="cls-1" d="m171.57,388.47c-45.83,0-88.92-17.85-121.32-50.25C17.85,305.81,0,262.72,0,216.89s17.85-88.92,50.25-121.32c32.41-32.41,75.49-50.25,121.32-50.25s88.92,17.85,121.32,50.25c32.41,32.41,50.25,75.49,50.25,121.32s-17.85,88.92-50.25,121.32c-32.41,32.41-75.49,50.25-121.32,50.25Zm0-306.84c-74.59,0-135.27,60.68-135.27,135.26s60.68,135.26,135.27,135.26,135.26-60.68,135.26-135.26-60.68-135.26-135.26-135.26Z"/>
      <rect class="cls-1" x="106.68" width="129.79" height="36.31"/>
      <path class="cls-1" d="m197.17,301.47l-28.99-65.35c-.33-.65-.82-.98-1.47-.98h-16.21c-.82,0-1.23.41-1.23,1.23v64.37c0,.82-.29,1.52-.86,2.09s-1.27.86-2.09.86h-34.89c-.82,0-1.52-.28-2.09-.86-.58-.57-.86-1.27-.86-2.09v-166.07c0-.82.28-1.51.86-2.09.57-.57,1.27-.86,2.09-.86h72.96c10.81,0,20.31,2.21,28.5,6.63,8.19,4.42,14.53,10.69,19.04,18.79,4.5,8.11,6.76,17.4,6.76,27.88s-2.7,20.47-8.11,28.5c-5.4,8.03-12.94,13.84-22.6,17.44-.82.33-1.07.9-.74,1.72l32.43,67.56c.33.66.49,1.15.49,1.47,0,1.31-.9,1.97-2.7,1.97h-36.85c-1.64,0-2.79-.74-3.44-2.21Zm-47.91-133.64v34.88c0,.82.41,1.23,1.23,1.23h27.27c6.06,0,10.97-1.68,14.74-5.04,3.77-3.35,5.65-7.82,5.65-13.39s-1.88-10.32-5.65-13.76c-3.77-3.44-8.68-5.16-14.74-5.16h-27.27c-.82,0-1.23.41-1.23,1.23Z"/>
    </g>
  </g>
</svg>